<svg width="22" height="16" viewBox="0 0 22 16" fill="none" xmlns="http://www.w3.org/2000/svg">
<path d="M20.9998 7.01229H3.41379L8.70679 1.71929C8.8023 1.62704 8.87848 1.5167 8.93089 1.39469C8.9833 1.27269 9.01088 1.14147 9.01204 1.00869C9.01319 0.87591 8.98789 0.744231 8.93761 0.621334C8.88733 0.498438 8.81307 0.386786 8.71918 0.292893C8.62529 0.199 8.51364 0.124747 8.39074 0.0744663C8.26784 0.0241854 8.13616 -0.00111606 8.00339 3.77571e-05C7.87061 0.00119157 7.73939 0.0287779 7.61738 0.0811869C7.49538 0.133596 7.38503 0.209778 7.29279 0.305288L0.292786 7.30529C0.105315 7.49282 0 7.74712 0 8.01229C0 8.27745 0.105315 8.53176 0.292786 8.71929L7.29279 15.7193C7.48139 15.9014 7.73399 16.0022 7.99619 16C8.25838 15.9977 8.5092 15.8925 8.6946 15.7071C8.88001 15.5217 8.98518 15.2709 8.98746 15.0087C8.98974 14.7465 8.88894 14.4939 8.70679 14.3053L3.41379 9.01229H20.9998C21.265 9.01229 21.5194 8.90693 21.7069 8.71939C21.8944 8.53186 21.9998 8.2775 21.9998 8.01229C21.9998 7.74707 21.8944 7.49272 21.7069 7.30518C21.5194 7.11765 21.265 7.01229 20.9998 7.01229Z" fill="black"/>
</svg>
