<svg width="28" height="24" viewBox="0 0 28 24" fill="none" xmlns="http://www.w3.org/2000/svg">
<path d="M26.6354 10.4388L26.6335 10.4372L15.4673 0.647484C14.9914 0.229922 14.3586 0 13.6855 0C13.0124 0 12.3796 0.229781 11.9035 0.647297L0.743055 10.432C0.739312 10.4353 0.73557 10.4388 0.731827 10.4421C-0.245597 11.304 -0.243886 12.7023 0.736639 13.562C1.18456 13.955 1.77624 14.1825 2.40882 14.2064C2.43449 14.2086 2.46042 14.2096 2.48651 14.2096H2.93154V21.4143C2.93154 22.84 4.25455 24 5.88103 24H10.2496C10.6923 24 11.0515 23.6852 11.0515 23.2969V17.6484C11.0515 16.9979 11.6551 16.4687 12.3971 16.4687H14.9738C15.7159 16.4687 16.3194 16.9979 16.3194 17.6484V23.2969C16.3194 23.6852 16.6784 24 17.1214 24H21.4899C23.1164 24 24.4394 22.84 24.4394 21.4144V14.2097H24.8521C25.525 14.2097 26.1578 13.9799 26.6342 13.5624C27.6158 12.7013 27.6161 11.3005 26.6354 10.4388Z" fill="#9E9E9E"/>
</svg>
