<svg width="19" height="19" viewBox="0 0 19 19" fill="none" xmlns="http://www.w3.org/2000/svg">
<path d="M9.16667 0C7.35367 0 5.58139 0.537616 4.07394 1.54486C2.56649 2.55211 1.39158 3.98375 0.697775 5.65874C0.0039718 7.33372 -0.177559 9.17684 0.176139 10.955C0.529837 12.7332 1.40288 14.3665 2.68486 15.6485C3.96684 16.9305 5.60018 17.8035 7.37834 18.1572C9.1565 18.5109 10.9996 18.3294 12.6746 17.6356C14.3496 16.9418 15.7812 15.7668 16.7885 14.2594C17.7957 12.7519 18.3333 10.9797 18.3333 9.16667C18.3305 6.7364 17.3638 4.40648 15.6453 2.68802C13.9269 0.969559 11.5969 0.00286706 9.16667 0ZM12.7017 11.5242C12.7813 11.601 12.8447 11.693 12.8884 11.7947C12.9321 11.8963 12.9551 12.0057 12.956 12.1163C12.957 12.227 12.9359 12.3367 12.894 12.4391C12.8521 12.5415 12.7902 12.6346 12.712 12.7128C12.6338 12.7911 12.5407 12.853 12.4383 12.8949C12.3359 12.9368 12.2262 12.9578 12.1155 12.9569C12.0049 12.9559 11.8955 12.9329 11.7938 12.8893C11.6922 12.8456 11.6002 12.7821 11.5233 12.7025L9.16667 10.345L6.81 12.7025C6.65284 12.8543 6.44233 12.9383 6.22384 12.9364C6.00534 12.9345 5.79633 12.8469 5.64182 12.6923C5.48732 12.5378 5.39967 12.3288 5.39778 12.1103C5.39588 11.8918 5.47987 11.6813 5.63167 11.5242L7.98834 9.16667L5.63167 6.80917C5.55208 6.73229 5.48859 6.64034 5.44492 6.53867C5.40125 6.437 5.37826 6.32765 5.3773 6.217C5.37633 6.10635 5.39742 5.99662 5.43932 5.89421C5.48122 5.79179 5.5431 5.69875 5.62134 5.6205C5.69959 5.54226 5.79263 5.48038 5.89504 5.43848C5.99746 5.39658 6.10719 5.3755 6.21784 5.37646C6.32849 5.37742 6.43784 5.40041 6.53951 5.44408C6.64118 5.48776 6.73313 5.55124 6.81 5.63083L9.16667 7.98833L11.5233 5.63083C11.6002 5.55124 11.6922 5.48776 11.7938 5.44408C11.8955 5.40041 12.0049 5.37742 12.1155 5.37646C12.2262 5.3755 12.3359 5.39658 12.4383 5.43848C12.5407 5.48038 12.6338 5.54226 12.712 5.6205C12.7902 5.69875 12.8521 5.79179 12.894 5.89421C12.9359 5.99662 12.957 6.10635 12.956 6.217C12.9551 6.32765 12.9321 6.437 12.8884 6.53867C12.8447 6.64034 12.7813 6.73229 12.7017 6.80917L10.345 9.16667L12.7017 11.5242Z" fill="black"/>
</svg>
